<svg width="192" height="192" viewBox="0 0 32 32" xmlns="http://www.w3.org/2000/svg">
  <!-- Background Circle -->
  <circle cx="16" cy="16" r="15" fill="#8B5CF6" stroke="#7C3AED" stroke-width="2"/>
  
  <!-- Letter G Design -->
  <path d="M12 8 C8 8 5 11 5 16 C5 21 8 24 12 24 C16 24 19 21 19 18 L15 18 L15 20 C14 20.5 13 20.5 12 20 C10 19 9 17.5 9 16 C9 14.5 10 13 12 12 C13.5 12 14.5 13 15 14 L18 12 C17 10 14.5 8 12 8 Z" fill="white" stroke="white" stroke-width="0.5"/>
  
  <!-- Checkmark/Tick -->
  <path d="M20 10 L23 13 L27 9" fill="none" stroke="#10B981" stroke-width="2.5" stroke-linecap="round" stroke-linejoin="round"/>
  
  <!-- Task Lines (subtle) -->
  <line x1="21" y1="18" x2="26" y2="18" stroke="white" stroke-width="1.5" stroke-linecap="round" opacity="0.8"/>
  <line x1="21" y1="21" x2="24" y2="21" stroke="white" stroke-width="1.5" stroke-linecap="round" opacity="0.6"/>
  <line x1="21" y1="24" x2="25" y2="24" stroke="white" stroke-width="1.5" stroke-linecap="round" opacity="0.4"/>
</svg>