<svg width="16" height="16" viewBox="0 0 32 32" xmlns="http://www.w3.org/2000/svg">
  <!-- Background Circle -->
  <circle cx="16" cy="16" r="15" fill="#8B5CF6"/>
  
  <!-- Letter G (simplified for small size) -->
  <path d="M12 9 C9 9 7 12 7 16 C7 20 9 23 12 23 C15 23 17 20 17 18 L14 18 L14 19.5 C13.5 19.8 12.5 19.8 12 19.5 C11 19 10.5 17.5 10.5 16 C10.5 14.5 11 13 12 12.5 C13 12.5 13.5 13 14 13.5 L16 12 C15.5 10.5 14 9 12 9 Z" fill="white"/>
  
  <!-- Checkmark (simplified) -->
  <path d="M21 11 L23 13 L26 10" fill="none" stroke="#10B981" stroke-width="2" stroke-linecap="round" stroke-linejoin="round"/>
  
  <!-- Single task line -->
  <line x1="21" y1="19" x2="25" y2="19" stroke="white" stroke-width="1.2" stroke-linecap="round" opacity="0.9"/>
</svg>